<mxfile host="app.diagrams.net" agent="Mozilla/5.0 (Windows NT 10.0; Win64; x64) AppleWebKit/537.36 (KHTML, like Gecko) Chrome/131.0.0.0 Safari/537.36" version="25.0.1">
  <diagram name="Pagina-1" id="0anlXEfNxIJ7pKt7eZQs">
    <mxGraphModel dx="-697" dy="1564" grid="1" gridSize="10" guides="1" tooltips="1" connect="1" arrows="1" fold="1" page="1" pageScale="1" pageWidth="1169" pageHeight="827" math="0" shadow="0">
      <root>
        <mxCell id="0" />
        <mxCell id="1" parent="0" />
        <mxCell id="snJnDUBm4UF36agR8E_9-49" style="rounded=0;orthogonalLoop=1;jettySize=auto;html=1;entryX=1;entryY=0.5;entryDx=0;entryDy=0;" parent="1" source="snJnDUBm4UF36agR8E_9-1" target="snJnDUBm4UF36agR8E_9-14" edge="1">
          <mxGeometry relative="1" as="geometry" />
        </mxCell>
        <mxCell id="snJnDUBm4UF36agR8E_9-50" style="edgeStyle=none;shape=connector;rounded=0;orthogonalLoop=1;jettySize=auto;html=1;entryX=1;entryY=0.5;entryDx=0;entryDy=0;strokeColor=default;align=center;verticalAlign=middle;fontFamily=Helvetica;fontSize=11;fontColor=default;labelBackgroundColor=default;endArrow=classic;" parent="1" source="snJnDUBm4UF36agR8E_9-1" target="snJnDUBm4UF36agR8E_9-15" edge="1">
          <mxGeometry relative="1" as="geometry" />
        </mxCell>
        <mxCell id="snJnDUBm4UF36agR8E_9-51" style="edgeStyle=none;shape=connector;rounded=0;orthogonalLoop=1;jettySize=auto;html=1;entryX=1;entryY=0.5;entryDx=0;entryDy=0;strokeColor=default;align=center;verticalAlign=middle;fontFamily=Helvetica;fontSize=11;fontColor=default;labelBackgroundColor=default;endArrow=classic;" parent="1" source="snJnDUBm4UF36agR8E_9-1" target="snJnDUBm4UF36agR8E_9-16" edge="1">
          <mxGeometry relative="1" as="geometry" />
        </mxCell>
        <mxCell id="snJnDUBm4UF36agR8E_9-59" style="edgeStyle=none;shape=connector;rounded=0;orthogonalLoop=1;jettySize=auto;html=1;entryX=1;entryY=0.5;entryDx=0;entryDy=0;strokeColor=default;align=center;verticalAlign=middle;fontFamily=Helvetica;fontSize=11;fontColor=default;labelBackgroundColor=default;endArrow=classic;" parent="1" source="snJnDUBm4UF36agR8E_9-1" target="snJnDUBm4UF36agR8E_9-24" edge="1">
          <mxGeometry relative="1" as="geometry" />
        </mxCell>
        <mxCell id="snJnDUBm4UF36agR8E_9-69" style="edgeStyle=none;shape=connector;rounded=0;orthogonalLoop=1;jettySize=auto;html=1;entryX=1;entryY=0.5;entryDx=0;entryDy=0;strokeColor=default;align=center;verticalAlign=middle;fontFamily=Helvetica;fontSize=11;fontColor=default;labelBackgroundColor=default;endArrow=classic;" parent="1" source="snJnDUBm4UF36agR8E_9-1" target="snJnDUBm4UF36agR8E_9-18" edge="1">
          <mxGeometry relative="1" as="geometry" />
        </mxCell>
        <mxCell id="snJnDUBm4UF36agR8E_9-83" style="edgeStyle=none;shape=connector;rounded=0;orthogonalLoop=1;jettySize=auto;html=1;entryX=1;entryY=0.5;entryDx=0;entryDy=0;strokeColor=default;align=center;verticalAlign=middle;fontFamily=Helvetica;fontSize=11;fontColor=default;labelBackgroundColor=default;endArrow=classic;" parent="1" source="snJnDUBm4UF36agR8E_9-1" target="snJnDUBm4UF36agR8E_9-17" edge="1">
          <mxGeometry relative="1" as="geometry" />
        </mxCell>
        <mxCell id="snJnDUBm4UF36agR8E_9-84" style="edgeStyle=none;shape=connector;rounded=0;orthogonalLoop=1;jettySize=auto;html=1;entryX=1;entryY=0.5;entryDx=0;entryDy=0;strokeColor=default;align=center;verticalAlign=middle;fontFamily=Helvetica;fontSize=11;fontColor=default;labelBackgroundColor=default;endArrow=classic;" parent="1" source="snJnDUBm4UF36agR8E_9-1" target="snJnDUBm4UF36agR8E_9-19" edge="1">
          <mxGeometry relative="1" as="geometry" />
        </mxCell>
        <mxCell id="snJnDUBm4UF36agR8E_9-85" style="edgeStyle=none;shape=connector;rounded=0;orthogonalLoop=1;jettySize=auto;html=1;entryX=1;entryY=0.5;entryDx=0;entryDy=0;strokeColor=default;align=center;verticalAlign=middle;fontFamily=Helvetica;fontSize=11;fontColor=default;labelBackgroundColor=default;endArrow=classic;" parent="1" source="snJnDUBm4UF36agR8E_9-1" target="snJnDUBm4UF36agR8E_9-20" edge="1">
          <mxGeometry relative="1" as="geometry" />
        </mxCell>
        <mxCell id="snJnDUBm4UF36agR8E_9-86" style="edgeStyle=none;shape=connector;rounded=0;orthogonalLoop=1;jettySize=auto;html=1;entryX=1;entryY=0.5;entryDx=0;entryDy=0;strokeColor=default;align=center;verticalAlign=middle;fontFamily=Helvetica;fontSize=11;fontColor=default;labelBackgroundColor=default;endArrow=classic;" parent="1" source="snJnDUBm4UF36agR8E_9-1" target="snJnDUBm4UF36agR8E_9-21" edge="1">
          <mxGeometry relative="1" as="geometry" />
        </mxCell>
        <mxCell id="snJnDUBm4UF36agR8E_9-87" style="edgeStyle=none;shape=connector;rounded=0;orthogonalLoop=1;jettySize=auto;html=1;entryX=1;entryY=0.5;entryDx=0;entryDy=0;strokeColor=default;align=center;verticalAlign=middle;fontFamily=Helvetica;fontSize=11;fontColor=default;labelBackgroundColor=default;endArrow=classic;" parent="1" source="snJnDUBm4UF36agR8E_9-1" target="snJnDUBm4UF36agR8E_9-22" edge="1">
          <mxGeometry relative="1" as="geometry" />
        </mxCell>
        <mxCell id="snJnDUBm4UF36agR8E_9-88" style="edgeStyle=none;shape=connector;rounded=0;orthogonalLoop=1;jettySize=auto;html=1;entryX=1;entryY=0.5;entryDx=0;entryDy=0;strokeColor=default;align=center;verticalAlign=middle;fontFamily=Helvetica;fontSize=11;fontColor=default;labelBackgroundColor=default;endArrow=classic;" parent="1" source="snJnDUBm4UF36agR8E_9-1" target="snJnDUBm4UF36agR8E_9-23" edge="1">
          <mxGeometry relative="1" as="geometry" />
        </mxCell>
        <mxCell id="snJnDUBm4UF36agR8E_9-190" style="edgeStyle=orthogonalEdgeStyle;shape=connector;rounded=0;orthogonalLoop=1;jettySize=auto;html=1;entryX=0.5;entryY=0;entryDx=0;entryDy=0;strokeColor=default;align=center;verticalAlign=middle;fontFamily=Helvetica;fontSize=11;fontColor=default;labelBackgroundColor=default;endArrow=classic;exitX=0.5;exitY=0;exitDx=0;exitDy=0;curved=1;" parent="1" source="snJnDUBm4UF36agR8E_9-1" target="snJnDUBm4UF36agR8E_9-111" edge="1">
          <mxGeometry relative="1" as="geometry">
            <Array as="points">
              <mxPoint x="1380" y="50" />
              <mxPoint x="1840" y="50" />
            </Array>
          </mxGeometry>
        </mxCell>
        <mxCell id="snJnDUBm4UF36agR8E_9-192" style="edgeStyle=orthogonalEdgeStyle;shape=connector;rounded=0;orthogonalLoop=1;jettySize=auto;html=1;entryX=0.5;entryY=0;entryDx=0;entryDy=0;strokeColor=default;align=center;verticalAlign=middle;fontFamily=Helvetica;fontSize=11;fontColor=default;labelBackgroundColor=default;endArrow=classic;exitX=0.5;exitY=0;exitDx=0;exitDy=0;curved=1;" parent="1" source="snJnDUBm4UF36agR8E_9-1" target="snJnDUBm4UF36agR8E_9-156" edge="1">
          <mxGeometry relative="1" as="geometry">
            <Array as="points">
              <mxPoint x="1380" y="10" />
              <mxPoint x="2300" y="10" />
            </Array>
          </mxGeometry>
        </mxCell>
        <mxCell id="snJnDUBm4UF36agR8E_9-1" value="&lt;font style=&quot;font-size: 16px;&quot;&gt;General&amp;nbsp;&lt;/font&gt;&lt;div style=&quot;font-size: 16px;&quot;&gt;processing speed&lt;br&gt;&lt;/div&gt;" style="ellipse;whiteSpace=wrap;html=1;fontFamily=Helvetica;fontSize=11;fontColor=default;labelBackgroundColor=default;fillColor=none;rotation=0;strokeWidth=2;" parent="1" vertex="1">
          <mxGeometry x="1310" y="80" width="140" height="90" as="geometry" />
        </mxCell>
        <mxCell id="snJnDUBm4UF36agR8E_9-14" value="&lt;span style=&quot;font-size: 16px;&quot;&gt;Pos&amp;nbsp;&lt;i&gt;v&lt;/i&gt;&lt;/span&gt;" style="rounded=0;whiteSpace=wrap;html=1;rotation=-90;" parent="1" vertex="1">
          <mxGeometry x="1160" y="370" width="70" height="20" as="geometry" />
        </mxCell>
        <mxCell id="snJnDUBm4UF36agR8E_9-15" value="&lt;span style=&quot;font-size: 16px;&quot;&gt;Fl con &lt;i&gt;v&lt;/i&gt;&lt;/span&gt;" style="rounded=0;whiteSpace=wrap;html=1;rotation=-90;" parent="1" vertex="1">
          <mxGeometry x="1200" y="370" width="70" height="20" as="geometry" />
        </mxCell>
        <mxCell id="snJnDUBm4UF36agR8E_9-16" value="&lt;span style=&quot;font-size: 16px;&quot;&gt;Fl inc &lt;i&gt;v&lt;/i&gt;&lt;/span&gt;" style="rounded=0;whiteSpace=wrap;html=1;rotation=-90;" parent="1" vertex="1">
          <mxGeometry x="1240" y="370" width="70" height="20" as="geometry" />
        </mxCell>
        <mxCell id="snJnDUBm4UF36agR8E_9-17" value="&lt;span style=&quot;font-size: 16px;&quot;&gt;Sm con &lt;i&gt;v&lt;/i&gt;&lt;/span&gt;" style="rounded=0;whiteSpace=wrap;html=1;rotation=-90;" parent="1" vertex="1">
          <mxGeometry x="1280" y="370" width="70" height="20" as="geometry" />
        </mxCell>
        <mxCell id="snJnDUBm4UF36agR8E_9-18" value="&lt;span style=&quot;font-size: 16px;&quot;&gt;Sm inc &lt;i&gt;v&lt;/i&gt;&lt;/span&gt;" style="rounded=0;whiteSpace=wrap;html=1;rotation=-90;" parent="1" vertex="1">
          <mxGeometry x="1320" y="370" width="70" height="20" as="geometry" />
        </mxCell>
        <mxCell id="snJnDUBm4UF36agR8E_9-19" value="&lt;span style=&quot;font-size: 16px;&quot;&gt;CS rep &lt;i&gt;v&lt;/i&gt;&lt;/span&gt;" style="rounded=0;whiteSpace=wrap;html=1;rotation=-90;" parent="1" vertex="1">
          <mxGeometry x="1360" y="370" width="70" height="20" as="geometry" />
        </mxCell>
        <mxCell id="snJnDUBm4UF36agR8E_9-20" value="&lt;span style=&quot;font-size: 16px;&quot;&gt;CS sw &lt;i&gt;v&lt;/i&gt;&lt;/span&gt;" style="rounded=0;whiteSpace=wrap;html=1;rotation=-90;" parent="1" vertex="1">
          <mxGeometry x="1400" y="370" width="70" height="20" as="geometry" />
        </mxCell>
        <mxCell id="snJnDUBm4UF36agR8E_9-21" value="&lt;span style=&quot;font-size: 16px;&quot;&gt;GL rep &lt;i&gt;v&lt;/i&gt;&lt;/span&gt;" style="rounded=0;whiteSpace=wrap;html=1;rotation=-90;" parent="1" vertex="1">
          <mxGeometry x="1440" y="370" width="70" height="20" as="geometry" />
        </mxCell>
        <mxCell id="snJnDUBm4UF36agR8E_9-22" value="&lt;span style=&quot;font-size: 16px;&quot;&gt;GL sw &lt;i&gt;v&lt;/i&gt;&lt;/span&gt;" style="rounded=0;whiteSpace=wrap;html=1;rotation=-90;" parent="1" vertex="1">
          <mxGeometry x="1480" y="370" width="70" height="20" as="geometry" />
        </mxCell>
        <mxCell id="snJnDUBm4UF36agR8E_9-23" value="&lt;span style=&quot;font-size: 16px;&quot;&gt;AS rep &lt;i&gt;v&lt;/i&gt;&lt;/span&gt;" style="rounded=0;whiteSpace=wrap;html=1;rotation=-90;" parent="1" vertex="1">
          <mxGeometry x="1520" y="370" width="70" height="20" as="geometry" />
        </mxCell>
        <mxCell id="snJnDUBm4UF36agR8E_9-24" value="&lt;span style=&quot;font-size: 16px;&quot;&gt;AS sw &lt;i&gt;v&lt;/i&gt;&lt;/span&gt;" style="rounded=0;whiteSpace=wrap;html=1;rotation=-90;" parent="1" vertex="1">
          <mxGeometry x="1560" y="370" width="70" height="20" as="geometry" />
        </mxCell>
        <mxCell id="snJnDUBm4UF36agR8E_9-60" value="&lt;font style=&quot;font-size: 14px;&quot;&gt;0.51&lt;/font&gt;" style="text;html=1;align=center;verticalAlign=middle;resizable=0;points=[];autosize=1;strokeColor=none;fillColor=none;fontFamily=Helvetica;fontSize=11;fontColor=default;labelBackgroundColor=default;" parent="1" vertex="1">
          <mxGeometry x="1228" y="300" width="50" height="30" as="geometry" />
        </mxCell>
        <mxCell id="snJnDUBm4UF36agR8E_9-65" value="&lt;font style=&quot;font-size: 14px;&quot;&gt;0.72&lt;/font&gt;" style="text;html=1;align=center;verticalAlign=middle;resizable=0;points=[];autosize=1;strokeColor=none;fillColor=none;fontFamily=Helvetica;fontSize=11;fontColor=default;labelBackgroundColor=default;" parent="1" vertex="1">
          <mxGeometry x="1193" y="300" width="50" height="30" as="geometry" />
        </mxCell>
        <mxCell id="snJnDUBm4UF36agR8E_9-66" value="&lt;font style=&quot;font-size: 14px;&quot;&gt;0.57&lt;/font&gt;" style="text;html=1;align=center;verticalAlign=middle;resizable=0;points=[];autosize=1;strokeColor=none;fillColor=none;fontFamily=Helvetica;fontSize=11;fontColor=default;labelBackgroundColor=default;" parent="1" vertex="1">
          <mxGeometry x="1263" y="300" width="50" height="30" as="geometry" />
        </mxCell>
        <mxCell id="snJnDUBm4UF36agR8E_9-67" value="&lt;font style=&quot;font-size: 14px;&quot;&gt;0.54&lt;/font&gt;" style="text;html=1;align=center;verticalAlign=middle;resizable=0;points=[];autosize=1;strokeColor=none;fillColor=none;fontFamily=Helvetica;fontSize=11;fontColor=default;labelBackgroundColor=default;" parent="1" vertex="1">
          <mxGeometry x="1335" y="300" width="50" height="30" as="geometry" />
        </mxCell>
        <mxCell id="snJnDUBm4UF36agR8E_9-70" value="&lt;font style=&quot;font-size: 14px;&quot;&gt;0.54&lt;/font&gt;" style="text;html=1;align=center;verticalAlign=middle;resizable=0;points=[];autosize=1;strokeColor=none;fillColor=none;fontFamily=Helvetica;fontSize=11;fontColor=default;labelBackgroundColor=default;" parent="1" vertex="1">
          <mxGeometry x="1299" y="300" width="50" height="30" as="geometry" />
        </mxCell>
        <mxCell id="snJnDUBm4UF36agR8E_9-72" value="&lt;font style=&quot;font-size: 14px;&quot;&gt;0.57&lt;/font&gt;" style="text;html=1;align=center;verticalAlign=middle;resizable=0;points=[];autosize=1;strokeColor=none;fillColor=none;fontFamily=Helvetica;fontSize=11;fontColor=default;labelBackgroundColor=default;" parent="1" vertex="1">
          <mxGeometry x="1370" y="300" width="50" height="30" as="geometry" />
        </mxCell>
        <mxCell id="snJnDUBm4UF36agR8E_9-74" value="&lt;font style=&quot;font-size: 14px;&quot;&gt;0.58&lt;/font&gt;" style="text;html=1;align=center;verticalAlign=middle;resizable=0;points=[];autosize=1;strokeColor=none;fillColor=none;fontFamily=Helvetica;fontSize=11;fontColor=default;labelBackgroundColor=default;" parent="1" vertex="1">
          <mxGeometry x="1405" y="300" width="50" height="30" as="geometry" />
        </mxCell>
        <mxCell id="snJnDUBm4UF36agR8E_9-76" value="&lt;font style=&quot;font-size: 14px;&quot;&gt;0.68&lt;/font&gt;" style="text;html=1;align=center;verticalAlign=middle;resizable=0;points=[];autosize=1;strokeColor=none;fillColor=none;fontFamily=Helvetica;fontSize=11;fontColor=default;labelBackgroundColor=default;" parent="1" vertex="1">
          <mxGeometry x="1439" y="300" width="50" height="30" as="geometry" />
        </mxCell>
        <mxCell id="snJnDUBm4UF36agR8E_9-78" value="&lt;font style=&quot;font-size: 14px;&quot;&gt;0.68&lt;/font&gt;" style="text;html=1;align=center;verticalAlign=middle;resizable=0;points=[];autosize=1;strokeColor=none;fillColor=none;fontFamily=Helvetica;fontSize=11;fontColor=default;labelBackgroundColor=default;" parent="1" vertex="1">
          <mxGeometry x="1473" y="300" width="50" height="30" as="geometry" />
        </mxCell>
        <mxCell id="snJnDUBm4UF36agR8E_9-80" value="&lt;font style=&quot;font-size: 14px;&quot;&gt;0.58&lt;/font&gt;" style="text;html=1;align=center;verticalAlign=middle;resizable=0;points=[];autosize=1;strokeColor=none;fillColor=none;fontFamily=Helvetica;fontSize=11;fontColor=default;labelBackgroundColor=default;" parent="1" vertex="1">
          <mxGeometry x="1509" y="300" width="50" height="30" as="geometry" />
        </mxCell>
        <mxCell id="snJnDUBm4UF36agR8E_9-82" value="&lt;font style=&quot;font-size: 14px;&quot;&gt;0.58&lt;/font&gt;" style="text;html=1;align=center;verticalAlign=middle;resizable=0;points=[];autosize=1;strokeColor=none;fillColor=none;fontFamily=Helvetica;fontSize=11;fontColor=default;labelBackgroundColor=default;" parent="1" vertex="1">
          <mxGeometry x="1544" y="300" width="50" height="30" as="geometry" />
        </mxCell>
        <mxCell id="snJnDUBm4UF36agR8E_9-90" style="edgeStyle=none;shape=connector;rounded=0;orthogonalLoop=1;jettySize=auto;html=1;entryX=0;entryY=0.5;entryDx=0;entryDy=0;strokeColor=#B3B3B3;align=center;verticalAlign=middle;fontFamily=Helvetica;fontSize=11;fontColor=#808080;labelBackgroundColor=default;endArrow=classic;" parent="1" source="snJnDUBm4UF36agR8E_9-89" target="snJnDUBm4UF36agR8E_9-16" edge="1">
          <mxGeometry relative="1" as="geometry" />
        </mxCell>
        <mxCell id="snJnDUBm4UF36agR8E_9-91" style="edgeStyle=none;shape=connector;rounded=0;orthogonalLoop=1;jettySize=auto;html=1;entryX=0;entryY=0.5;entryDx=0;entryDy=0;strokeColor=#B3B3B3;align=center;verticalAlign=middle;fontFamily=Helvetica;fontSize=11;fontColor=#808080;labelBackgroundColor=default;endArrow=classic;" parent="1" source="snJnDUBm4UF36agR8E_9-89" target="snJnDUBm4UF36agR8E_9-18" edge="1">
          <mxGeometry relative="1" as="geometry" />
        </mxCell>
        <mxCell id="snJnDUBm4UF36agR8E_9-92" style="edgeStyle=none;shape=connector;rounded=0;orthogonalLoop=1;jettySize=auto;html=1;entryX=0;entryY=0.5;entryDx=0;entryDy=0;strokeColor=#B3B3B3;align=center;verticalAlign=middle;fontFamily=Helvetica;fontSize=11;fontColor=#808080;labelBackgroundColor=default;endArrow=classic;" parent="1" source="snJnDUBm4UF36agR8E_9-89" target="snJnDUBm4UF36agR8E_9-20" edge="1">
          <mxGeometry relative="1" as="geometry" />
        </mxCell>
        <mxCell id="snJnDUBm4UF36agR8E_9-93" style="edgeStyle=none;shape=connector;rounded=0;orthogonalLoop=1;jettySize=auto;html=1;entryX=0;entryY=0.5;entryDx=0;entryDy=0;strokeColor=#B3B3B3;align=center;verticalAlign=middle;fontFamily=Helvetica;fontSize=11;fontColor=#808080;labelBackgroundColor=default;endArrow=classic;" parent="1" source="snJnDUBm4UF36agR8E_9-89" target="snJnDUBm4UF36agR8E_9-22" edge="1">
          <mxGeometry relative="1" as="geometry" />
        </mxCell>
        <mxCell id="snJnDUBm4UF36agR8E_9-94" style="edgeStyle=none;shape=connector;rounded=0;orthogonalLoop=1;jettySize=auto;html=1;entryX=0;entryY=0.5;entryDx=0;entryDy=0;strokeColor=#B3B3B3;align=center;verticalAlign=middle;fontFamily=Helvetica;fontSize=11;fontColor=#808080;labelBackgroundColor=default;endArrow=classic;" parent="1" source="snJnDUBm4UF36agR8E_9-89" target="snJnDUBm4UF36agR8E_9-24" edge="1">
          <mxGeometry relative="1" as="geometry" />
        </mxCell>
        <mxCell id="snJnDUBm4UF36agR8E_9-89" value="&lt;div style=&quot;font-size: 16px;&quot;&gt;Common&lt;/div&gt;&lt;div style=&quot;font-size: 16px;&quot;&gt;EF ability&lt;/div&gt;" style="ellipse;whiteSpace=wrap;html=1;fontFamily=Helvetica;fontSize=11;fontColor=#808080;labelBackgroundColor=default;fillColor=none;rotation=0;strokeWidth=2;strokeColor=#B3B3B3;" parent="1" vertex="1">
          <mxGeometry x="1365" y="520" width="140" height="90" as="geometry" />
        </mxCell>
        <mxCell id="snJnDUBm4UF36agR8E_9-95" value="&lt;font style=&quot;font-size: 14px;&quot;&gt;0.07&lt;/font&gt;" style="text;html=1;align=center;verticalAlign=middle;resizable=0;points=[];autosize=1;strokeColor=none;fillColor=none;fontFamily=Helvetica;fontSize=11;fontColor=#808080;labelBackgroundColor=default;" parent="1" vertex="1">
          <mxGeometry x="1315" y="460" width="50" height="30" as="geometry" />
        </mxCell>
        <mxCell id="snJnDUBm4UF36agR8E_9-96" value="&lt;font style=&quot;font-size: 14px;&quot;&gt;0.02&lt;/font&gt;" style="text;html=1;align=center;verticalAlign=middle;resizable=0;points=[];autosize=1;strokeColor=none;fillColor=none;fontFamily=Helvetica;fontSize=11;fontColor=#808080;labelBackgroundColor=default;" parent="1" vertex="1">
          <mxGeometry x="1360" y="460" width="50" height="30" as="geometry" />
        </mxCell>
        <mxCell id="snJnDUBm4UF36agR8E_9-97" value="&lt;font style=&quot;font-size: 14px;&quot;&gt;0.27&lt;/font&gt;" style="text;html=1;align=center;verticalAlign=middle;resizable=0;points=[];autosize=1;strokeColor=none;fillColor=none;fontFamily=Helvetica;fontSize=11;fontColor=#808080;labelBackgroundColor=default;" parent="1" vertex="1">
          <mxGeometry x="1410" y="460" width="50" height="30" as="geometry" />
        </mxCell>
        <mxCell id="snJnDUBm4UF36agR8E_9-98" value="&lt;font style=&quot;font-size: 14px;&quot;&gt;0.02&lt;/font&gt;" style="text;html=1;align=center;verticalAlign=middle;resizable=0;points=[];autosize=1;strokeColor=none;fillColor=none;fontFamily=Helvetica;fontSize=11;fontColor=#808080;labelBackgroundColor=default;" parent="1" vertex="1">
          <mxGeometry x="1455" y="460" width="50" height="30" as="geometry" />
        </mxCell>
        <mxCell id="snJnDUBm4UF36agR8E_9-99" value="&lt;font style=&quot;font-size: 14px;&quot;&gt;0.15&lt;/font&gt;" style="text;html=1;align=center;verticalAlign=middle;resizable=0;points=[];autosize=1;strokeColor=none;fillColor=none;fontFamily=Helvetica;fontSize=11;fontColor=#808080;labelBackgroundColor=default;" parent="1" vertex="1">
          <mxGeometry x="1505" y="460" width="50" height="30" as="geometry" />
        </mxCell>
        <mxCell id="snJnDUBm4UF36agR8E_9-100" style="rounded=0;orthogonalLoop=1;jettySize=auto;html=1;entryX=1;entryY=0.5;entryDx=0;entryDy=0;" parent="1" source="snJnDUBm4UF36agR8E_9-111" target="snJnDUBm4UF36agR8E_9-112" edge="1">
          <mxGeometry relative="1" as="geometry" />
        </mxCell>
        <mxCell id="snJnDUBm4UF36agR8E_9-101" style="edgeStyle=none;shape=connector;rounded=0;orthogonalLoop=1;jettySize=auto;html=1;entryX=1;entryY=0.5;entryDx=0;entryDy=0;strokeColor=default;align=center;verticalAlign=middle;fontFamily=Helvetica;fontSize=11;fontColor=default;labelBackgroundColor=default;endArrow=classic;" parent="1" source="snJnDUBm4UF36agR8E_9-111" target="snJnDUBm4UF36agR8E_9-113" edge="1">
          <mxGeometry relative="1" as="geometry" />
        </mxCell>
        <mxCell id="snJnDUBm4UF36agR8E_9-102" style="edgeStyle=none;shape=connector;rounded=0;orthogonalLoop=1;jettySize=auto;html=1;entryX=1;entryY=0.5;entryDx=0;entryDy=0;strokeColor=default;align=center;verticalAlign=middle;fontFamily=Helvetica;fontSize=11;fontColor=default;labelBackgroundColor=default;endArrow=classic;" parent="1" source="snJnDUBm4UF36agR8E_9-111" target="snJnDUBm4UF36agR8E_9-114" edge="1">
          <mxGeometry relative="1" as="geometry" />
        </mxCell>
        <mxCell id="snJnDUBm4UF36agR8E_9-103" style="edgeStyle=none;shape=connector;rounded=0;orthogonalLoop=1;jettySize=auto;html=1;entryX=1;entryY=0.5;entryDx=0;entryDy=0;strokeColor=default;align=center;verticalAlign=middle;fontFamily=Helvetica;fontSize=11;fontColor=default;labelBackgroundColor=default;endArrow=classic;" parent="1" source="snJnDUBm4UF36agR8E_9-111" target="snJnDUBm4UF36agR8E_9-122" edge="1">
          <mxGeometry relative="1" as="geometry" />
        </mxCell>
        <mxCell id="snJnDUBm4UF36agR8E_9-104" style="edgeStyle=none;shape=connector;rounded=0;orthogonalLoop=1;jettySize=auto;html=1;entryX=1;entryY=0.5;entryDx=0;entryDy=0;strokeColor=default;align=center;verticalAlign=middle;fontFamily=Helvetica;fontSize=11;fontColor=default;labelBackgroundColor=default;endArrow=classic;" parent="1" source="snJnDUBm4UF36agR8E_9-111" target="snJnDUBm4UF36agR8E_9-116" edge="1">
          <mxGeometry relative="1" as="geometry" />
        </mxCell>
        <mxCell id="snJnDUBm4UF36agR8E_9-105" style="edgeStyle=none;shape=connector;rounded=0;orthogonalLoop=1;jettySize=auto;html=1;entryX=1;entryY=0.5;entryDx=0;entryDy=0;strokeColor=default;align=center;verticalAlign=middle;fontFamily=Helvetica;fontSize=11;fontColor=default;labelBackgroundColor=default;endArrow=classic;" parent="1" source="snJnDUBm4UF36agR8E_9-111" target="snJnDUBm4UF36agR8E_9-115" edge="1">
          <mxGeometry relative="1" as="geometry" />
        </mxCell>
        <mxCell id="snJnDUBm4UF36agR8E_9-106" style="edgeStyle=none;shape=connector;rounded=0;orthogonalLoop=1;jettySize=auto;html=1;entryX=1;entryY=0.5;entryDx=0;entryDy=0;strokeColor=default;align=center;verticalAlign=middle;fontFamily=Helvetica;fontSize=11;fontColor=default;labelBackgroundColor=default;endArrow=classic;" parent="1" source="snJnDUBm4UF36agR8E_9-111" target="snJnDUBm4UF36agR8E_9-117" edge="1">
          <mxGeometry relative="1" as="geometry" />
        </mxCell>
        <mxCell id="snJnDUBm4UF36agR8E_9-107" style="edgeStyle=none;shape=connector;rounded=0;orthogonalLoop=1;jettySize=auto;html=1;entryX=1;entryY=0.5;entryDx=0;entryDy=0;strokeColor=default;align=center;verticalAlign=middle;fontFamily=Helvetica;fontSize=11;fontColor=default;labelBackgroundColor=default;endArrow=classic;" parent="1" source="snJnDUBm4UF36agR8E_9-111" target="snJnDUBm4UF36agR8E_9-118" edge="1">
          <mxGeometry relative="1" as="geometry" />
        </mxCell>
        <mxCell id="snJnDUBm4UF36agR8E_9-108" style="edgeStyle=none;shape=connector;rounded=0;orthogonalLoop=1;jettySize=auto;html=1;entryX=1;entryY=0.5;entryDx=0;entryDy=0;strokeColor=default;align=center;verticalAlign=middle;fontFamily=Helvetica;fontSize=11;fontColor=default;labelBackgroundColor=default;endArrow=classic;" parent="1" source="snJnDUBm4UF36agR8E_9-111" target="snJnDUBm4UF36agR8E_9-119" edge="1">
          <mxGeometry relative="1" as="geometry" />
        </mxCell>
        <mxCell id="snJnDUBm4UF36agR8E_9-109" style="edgeStyle=none;shape=connector;rounded=0;orthogonalLoop=1;jettySize=auto;html=1;entryX=1;entryY=0.5;entryDx=0;entryDy=0;strokeColor=default;align=center;verticalAlign=middle;fontFamily=Helvetica;fontSize=11;fontColor=default;labelBackgroundColor=default;endArrow=classic;" parent="1" source="snJnDUBm4UF36agR8E_9-111" target="snJnDUBm4UF36agR8E_9-120" edge="1">
          <mxGeometry relative="1" as="geometry" />
        </mxCell>
        <mxCell id="snJnDUBm4UF36agR8E_9-110" style="edgeStyle=none;shape=connector;rounded=0;orthogonalLoop=1;jettySize=auto;html=1;entryX=1;entryY=0.5;entryDx=0;entryDy=0;strokeColor=default;align=center;verticalAlign=middle;fontFamily=Helvetica;fontSize=11;fontColor=default;labelBackgroundColor=default;endArrow=classic;" parent="1" source="snJnDUBm4UF36agR8E_9-111" target="snJnDUBm4UF36agR8E_9-121" edge="1">
          <mxGeometry relative="1" as="geometry" />
        </mxCell>
        <mxCell id="snJnDUBm4UF36agR8E_9-191" style="edgeStyle=orthogonalEdgeStyle;shape=connector;rounded=0;orthogonalLoop=1;jettySize=auto;html=1;entryX=0.5;entryY=0;entryDx=0;entryDy=0;strokeColor=default;align=center;verticalAlign=middle;fontFamily=Helvetica;fontSize=11;fontColor=default;labelBackgroundColor=default;endArrow=classic;exitX=0.5;exitY=0;exitDx=0;exitDy=0;curved=1;" parent="1" source="snJnDUBm4UF36agR8E_9-111" target="snJnDUBm4UF36agR8E_9-156" edge="1">
          <mxGeometry relative="1" as="geometry">
            <Array as="points">
              <mxPoint x="1840" y="50" />
              <mxPoint x="2300" y="50" />
            </Array>
          </mxGeometry>
        </mxCell>
        <mxCell id="snJnDUBm4UF36agR8E_9-111" value="&lt;font style=&quot;font-size: 16px;&quot;&gt;General&amp;nbsp;&lt;/font&gt;&lt;div style=&quot;font-size: 16px;&quot;&gt;response caution&lt;/div&gt;" style="ellipse;whiteSpace=wrap;html=1;fontFamily=Helvetica;fontSize=11;fontColor=default;labelBackgroundColor=default;fillColor=none;rotation=0;strokeWidth=2;" parent="1" vertex="1">
          <mxGeometry x="1770" y="80" width="140" height="90" as="geometry" />
        </mxCell>
        <mxCell id="snJnDUBm4UF36agR8E_9-112" value="&lt;span style=&quot;font-size: 16px;&quot;&gt;Pos&amp;nbsp;&lt;i&gt;a&lt;/i&gt;&lt;/span&gt;" style="rounded=0;whiteSpace=wrap;html=1;rotation=-90;" parent="1" vertex="1">
          <mxGeometry x="1620" y="370" width="70" height="20" as="geometry" />
        </mxCell>
        <mxCell id="snJnDUBm4UF36agR8E_9-113" value="&lt;span style=&quot;font-size: 16px;&quot;&gt;Fl con &lt;i&gt;a&lt;/i&gt;&lt;/span&gt;" style="rounded=0;whiteSpace=wrap;html=1;rotation=-90;" parent="1" vertex="1">
          <mxGeometry x="1660" y="370" width="70" height="20" as="geometry" />
        </mxCell>
        <mxCell id="snJnDUBm4UF36agR8E_9-114" value="&lt;span style=&quot;font-size: 16px;&quot;&gt;Fl inc &lt;i&gt;a&lt;/i&gt;&lt;/span&gt;" style="rounded=0;whiteSpace=wrap;html=1;rotation=-90;" parent="1" vertex="1">
          <mxGeometry x="1700" y="370" width="70" height="20" as="geometry" />
        </mxCell>
        <mxCell id="snJnDUBm4UF36agR8E_9-115" value="&lt;span style=&quot;font-size: 16px;&quot;&gt;Sm con &lt;i&gt;a&lt;/i&gt;&lt;/span&gt;" style="rounded=0;whiteSpace=wrap;html=1;rotation=-90;" parent="1" vertex="1">
          <mxGeometry x="1740" y="370" width="70" height="20" as="geometry" />
        </mxCell>
        <mxCell id="snJnDUBm4UF36agR8E_9-116" value="&lt;span style=&quot;font-size: 16px;&quot;&gt;Sm inc &lt;i&gt;a&lt;/i&gt;&lt;/span&gt;" style="rounded=0;whiteSpace=wrap;html=1;rotation=-90;" parent="1" vertex="1">
          <mxGeometry x="1780" y="370" width="70" height="20" as="geometry" />
        </mxCell>
        <mxCell id="snJnDUBm4UF36agR8E_9-117" value="&lt;span style=&quot;font-size: 16px;&quot;&gt;CS rep &lt;i&gt;a&lt;/i&gt;&lt;/span&gt;" style="rounded=0;whiteSpace=wrap;html=1;rotation=-90;" parent="1" vertex="1">
          <mxGeometry x="1820" y="370" width="70" height="20" as="geometry" />
        </mxCell>
        <mxCell id="snJnDUBm4UF36agR8E_9-118" value="&lt;span style=&quot;font-size: 16px;&quot;&gt;CS sw &lt;i&gt;a&lt;/i&gt;&lt;/span&gt;" style="rounded=0;whiteSpace=wrap;html=1;rotation=-90;" parent="1" vertex="1">
          <mxGeometry x="1860" y="370" width="70" height="20" as="geometry" />
        </mxCell>
        <mxCell id="snJnDUBm4UF36agR8E_9-119" value="&lt;span style=&quot;font-size: 16px;&quot;&gt;GL rep &lt;i&gt;a&lt;/i&gt;&lt;/span&gt;" style="rounded=0;whiteSpace=wrap;html=1;rotation=-90;" parent="1" vertex="1">
          <mxGeometry x="1900" y="370" width="70" height="20" as="geometry" />
        </mxCell>
        <mxCell id="snJnDUBm4UF36agR8E_9-120" value="&lt;span style=&quot;font-size: 16px;&quot;&gt;GL sw &lt;i&gt;a&lt;/i&gt;&lt;/span&gt;" style="rounded=0;whiteSpace=wrap;html=1;rotation=-90;" parent="1" vertex="1">
          <mxGeometry x="1940" y="370" width="70" height="20" as="geometry" />
        </mxCell>
        <mxCell id="snJnDUBm4UF36agR8E_9-121" value="&lt;span style=&quot;font-size: 16px;&quot;&gt;AS rep &lt;i&gt;a&lt;/i&gt;&lt;/span&gt;" style="rounded=0;whiteSpace=wrap;html=1;rotation=-90;" parent="1" vertex="1">
          <mxGeometry x="1980" y="370" width="70" height="20" as="geometry" />
        </mxCell>
        <mxCell id="snJnDUBm4UF36agR8E_9-122" value="&lt;span style=&quot;font-size: 16px;&quot;&gt;AS sw &lt;i&gt;a&lt;/i&gt;&lt;/span&gt;" style="rounded=0;whiteSpace=wrap;html=1;rotation=-90;" parent="1" vertex="1">
          <mxGeometry x="2020" y="370" width="70" height="20" as="geometry" />
        </mxCell>
        <mxCell id="snJnDUBm4UF36agR8E_9-123" value="&lt;font style=&quot;font-size: 14px;&quot;&gt;0.62&lt;/font&gt;" style="text;html=1;align=center;verticalAlign=middle;resizable=0;points=[];autosize=1;strokeColor=none;fillColor=none;fontFamily=Helvetica;fontSize=11;fontColor=default;labelBackgroundColor=default;" parent="1" vertex="1">
          <mxGeometry x="1688" y="300" width="50" height="30" as="geometry" />
        </mxCell>
        <mxCell id="snJnDUBm4UF36agR8E_9-124" value="&lt;font style=&quot;font-size: 14px;&quot;&gt;0.68&lt;/font&gt;" style="text;html=1;align=center;verticalAlign=middle;resizable=0;points=[];autosize=1;strokeColor=none;fillColor=none;fontFamily=Helvetica;fontSize=11;fontColor=default;labelBackgroundColor=default;" parent="1" vertex="1">
          <mxGeometry x="1653" y="300" width="50" height="30" as="geometry" />
        </mxCell>
        <mxCell id="snJnDUBm4UF36agR8E_9-125" value="&lt;font style=&quot;font-size: 14px;&quot;&gt;0.53&lt;/font&gt;" style="text;html=1;align=center;verticalAlign=middle;resizable=0;points=[];autosize=1;strokeColor=none;fillColor=none;fontFamily=Helvetica;fontSize=11;fontColor=default;labelBackgroundColor=default;" parent="1" vertex="1">
          <mxGeometry x="1723" y="300" width="50" height="30" as="geometry" />
        </mxCell>
        <mxCell id="snJnDUBm4UF36agR8E_9-126" value="&lt;font style=&quot;font-size: 14px;&quot;&gt;0.55&lt;/font&gt;" style="text;html=1;align=center;verticalAlign=middle;resizable=0;points=[];autosize=1;strokeColor=none;fillColor=none;fontFamily=Helvetica;fontSize=11;fontColor=default;labelBackgroundColor=default;" parent="1" vertex="1">
          <mxGeometry x="1795" y="300" width="50" height="30" as="geometry" />
        </mxCell>
        <mxCell id="snJnDUBm4UF36agR8E_9-127" value="&lt;font style=&quot;font-size: 14px;&quot;&gt;0.57&lt;/font&gt;" style="text;html=1;align=center;verticalAlign=middle;resizable=0;points=[];autosize=1;strokeColor=none;fillColor=none;fontFamily=Helvetica;fontSize=11;fontColor=default;labelBackgroundColor=default;" parent="1" vertex="1">
          <mxGeometry x="1759" y="300" width="50" height="30" as="geometry" />
        </mxCell>
        <mxCell id="snJnDUBm4UF36agR8E_9-128" value="&lt;font style=&quot;font-size: 14px;&quot;&gt;0.49&lt;/font&gt;" style="text;html=1;align=center;verticalAlign=middle;resizable=0;points=[];autosize=1;strokeColor=none;fillColor=none;fontFamily=Helvetica;fontSize=11;fontColor=default;labelBackgroundColor=default;" parent="1" vertex="1">
          <mxGeometry x="1830" y="300" width="50" height="30" as="geometry" />
        </mxCell>
        <mxCell id="snJnDUBm4UF36agR8E_9-129" value="&lt;font style=&quot;font-size: 14px;&quot;&gt;0.55&lt;/font&gt;" style="text;html=1;align=center;verticalAlign=middle;resizable=0;points=[];autosize=1;strokeColor=none;fillColor=none;fontFamily=Helvetica;fontSize=11;fontColor=default;labelBackgroundColor=default;" parent="1" vertex="1">
          <mxGeometry x="1865" y="300" width="50" height="30" as="geometry" />
        </mxCell>
        <mxCell id="snJnDUBm4UF36agR8E_9-130" value="&lt;font style=&quot;font-size: 14px;&quot;&gt;0.55&lt;/font&gt;" style="text;html=1;align=center;verticalAlign=middle;resizable=0;points=[];autosize=1;strokeColor=none;fillColor=none;fontFamily=Helvetica;fontSize=11;fontColor=default;labelBackgroundColor=default;" parent="1" vertex="1">
          <mxGeometry x="1899" y="300" width="50" height="30" as="geometry" />
        </mxCell>
        <mxCell id="snJnDUBm4UF36agR8E_9-131" value="&lt;font style=&quot;font-size: 14px;&quot;&gt;0.58&lt;/font&gt;" style="text;html=1;align=center;verticalAlign=middle;resizable=0;points=[];autosize=1;strokeColor=none;fillColor=none;fontFamily=Helvetica;fontSize=11;fontColor=default;labelBackgroundColor=default;" parent="1" vertex="1">
          <mxGeometry x="1933" y="300" width="50" height="30" as="geometry" />
        </mxCell>
        <mxCell id="snJnDUBm4UF36agR8E_9-132" value="&lt;font style=&quot;font-size: 14px;&quot;&gt;0.44&lt;/font&gt;" style="text;html=1;align=center;verticalAlign=middle;resizable=0;points=[];autosize=1;strokeColor=none;fillColor=none;fontFamily=Helvetica;fontSize=11;fontColor=default;labelBackgroundColor=default;" parent="1" vertex="1">
          <mxGeometry x="1969" y="300" width="50" height="30" as="geometry" />
        </mxCell>
        <mxCell id="snJnDUBm4UF36agR8E_9-133" value="&lt;font style=&quot;font-size: 14px;&quot;&gt;0.51&lt;/font&gt;" style="text;html=1;align=center;verticalAlign=middle;resizable=0;points=[];autosize=1;strokeColor=none;fillColor=none;fontFamily=Helvetica;fontSize=11;fontColor=default;labelBackgroundColor=default;" parent="1" vertex="1">
          <mxGeometry x="2004" y="300" width="50" height="30" as="geometry" />
        </mxCell>
        <mxCell id="snJnDUBm4UF36agR8E_9-145" style="rounded=0;orthogonalLoop=1;jettySize=auto;html=1;entryX=1;entryY=0.5;entryDx=0;entryDy=0;" parent="1" source="snJnDUBm4UF36agR8E_9-156" target="snJnDUBm4UF36agR8E_9-157" edge="1">
          <mxGeometry relative="1" as="geometry" />
        </mxCell>
        <mxCell id="snJnDUBm4UF36agR8E_9-146" style="edgeStyle=none;shape=connector;rounded=0;orthogonalLoop=1;jettySize=auto;html=1;entryX=1;entryY=0.5;entryDx=0;entryDy=0;strokeColor=default;align=center;verticalAlign=middle;fontFamily=Helvetica;fontSize=11;fontColor=default;labelBackgroundColor=default;endArrow=classic;" parent="1" source="snJnDUBm4UF36agR8E_9-156" target="snJnDUBm4UF36agR8E_9-158" edge="1">
          <mxGeometry relative="1" as="geometry" />
        </mxCell>
        <mxCell id="snJnDUBm4UF36agR8E_9-147" style="edgeStyle=none;shape=connector;rounded=0;orthogonalLoop=1;jettySize=auto;html=1;entryX=1;entryY=0.5;entryDx=0;entryDy=0;strokeColor=default;align=center;verticalAlign=middle;fontFamily=Helvetica;fontSize=11;fontColor=default;labelBackgroundColor=default;endArrow=classic;" parent="1" source="snJnDUBm4UF36agR8E_9-156" target="snJnDUBm4UF36agR8E_9-159" edge="1">
          <mxGeometry relative="1" as="geometry" />
        </mxCell>
        <mxCell id="snJnDUBm4UF36agR8E_9-148" style="edgeStyle=none;shape=connector;rounded=0;orthogonalLoop=1;jettySize=auto;html=1;entryX=1;entryY=0.5;entryDx=0;entryDy=0;strokeColor=default;align=center;verticalAlign=middle;fontFamily=Helvetica;fontSize=11;fontColor=default;labelBackgroundColor=default;endArrow=classic;" parent="1" source="snJnDUBm4UF36agR8E_9-156" target="snJnDUBm4UF36agR8E_9-167" edge="1">
          <mxGeometry relative="1" as="geometry" />
        </mxCell>
        <mxCell id="snJnDUBm4UF36agR8E_9-149" style="edgeStyle=none;shape=connector;rounded=0;orthogonalLoop=1;jettySize=auto;html=1;entryX=1;entryY=0.5;entryDx=0;entryDy=0;strokeColor=default;align=center;verticalAlign=middle;fontFamily=Helvetica;fontSize=11;fontColor=default;labelBackgroundColor=default;endArrow=classic;" parent="1" source="snJnDUBm4UF36agR8E_9-156" target="snJnDUBm4UF36agR8E_9-161" edge="1">
          <mxGeometry relative="1" as="geometry" />
        </mxCell>
        <mxCell id="snJnDUBm4UF36agR8E_9-150" style="edgeStyle=none;shape=connector;rounded=0;orthogonalLoop=1;jettySize=auto;html=1;entryX=1;entryY=0.5;entryDx=0;entryDy=0;strokeColor=default;align=center;verticalAlign=middle;fontFamily=Helvetica;fontSize=11;fontColor=default;labelBackgroundColor=default;endArrow=classic;" parent="1" source="snJnDUBm4UF36agR8E_9-156" target="snJnDUBm4UF36agR8E_9-160" edge="1">
          <mxGeometry relative="1" as="geometry" />
        </mxCell>
        <mxCell id="snJnDUBm4UF36agR8E_9-151" style="edgeStyle=none;shape=connector;rounded=0;orthogonalLoop=1;jettySize=auto;html=1;entryX=1;entryY=0.5;entryDx=0;entryDy=0;strokeColor=default;align=center;verticalAlign=middle;fontFamily=Helvetica;fontSize=11;fontColor=default;labelBackgroundColor=default;endArrow=classic;" parent="1" source="snJnDUBm4UF36agR8E_9-156" target="snJnDUBm4UF36agR8E_9-162" edge="1">
          <mxGeometry relative="1" as="geometry" />
        </mxCell>
        <mxCell id="snJnDUBm4UF36agR8E_9-152" style="edgeStyle=none;shape=connector;rounded=0;orthogonalLoop=1;jettySize=auto;html=1;entryX=1;entryY=0.5;entryDx=0;entryDy=0;strokeColor=default;align=center;verticalAlign=middle;fontFamily=Helvetica;fontSize=11;fontColor=default;labelBackgroundColor=default;endArrow=classic;" parent="1" source="snJnDUBm4UF36agR8E_9-156" target="snJnDUBm4UF36agR8E_9-163" edge="1">
          <mxGeometry relative="1" as="geometry" />
        </mxCell>
        <mxCell id="snJnDUBm4UF36agR8E_9-153" style="edgeStyle=none;shape=connector;rounded=0;orthogonalLoop=1;jettySize=auto;html=1;entryX=1;entryY=0.5;entryDx=0;entryDy=0;strokeColor=default;align=center;verticalAlign=middle;fontFamily=Helvetica;fontSize=11;fontColor=default;labelBackgroundColor=default;endArrow=classic;" parent="1" source="snJnDUBm4UF36agR8E_9-156" target="snJnDUBm4UF36agR8E_9-164" edge="1">
          <mxGeometry relative="1" as="geometry" />
        </mxCell>
        <mxCell id="snJnDUBm4UF36agR8E_9-154" style="edgeStyle=none;shape=connector;rounded=0;orthogonalLoop=1;jettySize=auto;html=1;entryX=1;entryY=0.5;entryDx=0;entryDy=0;strokeColor=default;align=center;verticalAlign=middle;fontFamily=Helvetica;fontSize=11;fontColor=default;labelBackgroundColor=default;endArrow=classic;" parent="1" source="snJnDUBm4UF36agR8E_9-156" target="snJnDUBm4UF36agR8E_9-165" edge="1">
          <mxGeometry relative="1" as="geometry" />
        </mxCell>
        <mxCell id="snJnDUBm4UF36agR8E_9-155" style="edgeStyle=none;shape=connector;rounded=0;orthogonalLoop=1;jettySize=auto;html=1;entryX=1;entryY=0.5;entryDx=0;entryDy=0;strokeColor=default;align=center;verticalAlign=middle;fontFamily=Helvetica;fontSize=11;fontColor=default;labelBackgroundColor=default;endArrow=classic;" parent="1" source="snJnDUBm4UF36agR8E_9-156" target="snJnDUBm4UF36agR8E_9-166" edge="1">
          <mxGeometry relative="1" as="geometry" />
        </mxCell>
        <mxCell id="snJnDUBm4UF36agR8E_9-156" value="&lt;div style=&quot;font-size: 16px;&quot;&gt;General&amp;nbsp;&lt;/div&gt;&lt;div style=&quot;font-size: 16px;&quot;&gt;non-decision time&lt;/div&gt;" style="ellipse;whiteSpace=wrap;html=1;fontFamily=Helvetica;fontSize=11;fontColor=default;labelBackgroundColor=default;fillColor=none;rotation=0;strokeWidth=2;" parent="1" vertex="1">
          <mxGeometry x="2230" y="80" width="140" height="90" as="geometry" />
        </mxCell>
        <mxCell id="snJnDUBm4UF36agR8E_9-157" value="&lt;span style=&quot;font-size: 16px;&quot;&gt;Pos &lt;i&gt;t&lt;/i&gt;&lt;/span&gt;" style="rounded=0;whiteSpace=wrap;html=1;rotation=-90;" parent="1" vertex="1">
          <mxGeometry x="2080" y="370" width="70" height="20" as="geometry" />
        </mxCell>
        <mxCell id="snJnDUBm4UF36agR8E_9-158" value="&lt;span style=&quot;font-size: 16px;&quot;&gt;Fl con &lt;i&gt;t&lt;/i&gt;&lt;/span&gt;" style="rounded=0;whiteSpace=wrap;html=1;rotation=-90;" parent="1" vertex="1">
          <mxGeometry x="2120" y="370" width="70" height="20" as="geometry" />
        </mxCell>
        <mxCell id="snJnDUBm4UF36agR8E_9-159" value="&lt;span style=&quot;font-size: 16px;&quot;&gt;Fl inc &lt;i&gt;t&lt;/i&gt;&lt;/span&gt;" style="rounded=0;whiteSpace=wrap;html=1;rotation=-90;" parent="1" vertex="1">
          <mxGeometry x="2160" y="370" width="70" height="20" as="geometry" />
        </mxCell>
        <mxCell id="snJnDUBm4UF36agR8E_9-160" value="&lt;span style=&quot;font-size: 16px;&quot;&gt;Sm con &lt;i&gt;t&lt;/i&gt;&lt;/span&gt;" style="rounded=0;whiteSpace=wrap;html=1;rotation=-90;" parent="1" vertex="1">
          <mxGeometry x="2200" y="370" width="70" height="20" as="geometry" />
        </mxCell>
        <mxCell id="snJnDUBm4UF36agR8E_9-161" value="&lt;span style=&quot;font-size: 16px;&quot;&gt;Sm inc &lt;i&gt;t&lt;/i&gt;&lt;/span&gt;" style="rounded=0;whiteSpace=wrap;html=1;rotation=-90;" parent="1" vertex="1">
          <mxGeometry x="2240" y="370" width="70" height="20" as="geometry" />
        </mxCell>
        <mxCell id="snJnDUBm4UF36agR8E_9-162" value="&lt;span style=&quot;font-size: 16px;&quot;&gt;CS rep &lt;i&gt;t&lt;/i&gt;&lt;/span&gt;" style="rounded=0;whiteSpace=wrap;html=1;rotation=-90;" parent="1" vertex="1">
          <mxGeometry x="2280" y="370" width="70" height="20" as="geometry" />
        </mxCell>
        <mxCell id="snJnDUBm4UF36agR8E_9-163" value="&lt;span style=&quot;font-size: 16px;&quot;&gt;CS sw &lt;i&gt;t&lt;/i&gt;&lt;/span&gt;" style="rounded=0;whiteSpace=wrap;html=1;rotation=-90;" parent="1" vertex="1">
          <mxGeometry x="2320" y="370" width="70" height="20" as="geometry" />
        </mxCell>
        <mxCell id="snJnDUBm4UF36agR8E_9-164" value="&lt;span style=&quot;font-size: 16px;&quot;&gt;GL rep &lt;i&gt;t&lt;/i&gt;&lt;/span&gt;" style="rounded=0;whiteSpace=wrap;html=1;rotation=-90;" parent="1" vertex="1">
          <mxGeometry x="2360" y="370" width="70" height="20" as="geometry" />
        </mxCell>
        <mxCell id="snJnDUBm4UF36agR8E_9-165" value="&lt;span style=&quot;font-size: 16px;&quot;&gt;GL sw &lt;i&gt;t&lt;/i&gt;&lt;/span&gt;" style="rounded=0;whiteSpace=wrap;html=1;rotation=-90;" parent="1" vertex="1">
          <mxGeometry x="2400" y="370" width="70" height="20" as="geometry" />
        </mxCell>
        <mxCell id="snJnDUBm4UF36agR8E_9-166" value="&lt;span style=&quot;font-size: 16px;&quot;&gt;AS rep &lt;i&gt;t&lt;/i&gt;&lt;/span&gt;" style="rounded=0;whiteSpace=wrap;html=1;rotation=-90;" parent="1" vertex="1">
          <mxGeometry x="2440" y="370" width="70" height="20" as="geometry" />
        </mxCell>
        <mxCell id="snJnDUBm4UF36agR8E_9-167" value="&lt;span style=&quot;font-size: 16px;&quot;&gt;AS sw &lt;i&gt;t&lt;/i&gt;&lt;/span&gt;" style="rounded=0;whiteSpace=wrap;html=1;rotation=-90;" parent="1" vertex="1">
          <mxGeometry x="2480" y="370" width="70" height="20" as="geometry" />
        </mxCell>
        <mxCell id="snJnDUBm4UF36agR8E_9-168" value="&lt;font style=&quot;font-size: 14px;&quot;&gt;0.68&lt;/font&gt;" style="text;html=1;align=center;verticalAlign=middle;resizable=0;points=[];autosize=1;strokeColor=none;fillColor=none;fontFamily=Helvetica;fontSize=11;fontColor=default;labelBackgroundColor=default;" parent="1" vertex="1">
          <mxGeometry x="2148" y="300" width="50" height="30" as="geometry" />
        </mxCell>
        <mxCell id="snJnDUBm4UF36agR8E_9-169" value="&lt;font style=&quot;font-size: 14px;&quot;&gt;0.75&lt;/font&gt;" style="text;html=1;align=center;verticalAlign=middle;resizable=0;points=[];autosize=1;strokeColor=none;fillColor=none;fontFamily=Helvetica;fontSize=11;fontColor=default;labelBackgroundColor=default;" parent="1" vertex="1">
          <mxGeometry x="2113" y="300" width="50" height="30" as="geometry" />
        </mxCell>
        <mxCell id="snJnDUBm4UF36agR8E_9-170" value="&lt;font style=&quot;font-size: 14px;&quot;&gt;0.54&lt;/font&gt;" style="text;html=1;align=center;verticalAlign=middle;resizable=0;points=[];autosize=1;strokeColor=none;fillColor=none;fontFamily=Helvetica;fontSize=11;fontColor=default;labelBackgroundColor=default;" parent="1" vertex="1">
          <mxGeometry x="2183" y="300" width="50" height="30" as="geometry" />
        </mxCell>
        <mxCell id="snJnDUBm4UF36agR8E_9-171" value="&lt;font style=&quot;font-size: 14px;&quot;&gt;0.60&lt;/font&gt;" style="text;html=1;align=center;verticalAlign=middle;resizable=0;points=[];autosize=1;strokeColor=none;fillColor=none;fontFamily=Helvetica;fontSize=11;fontColor=default;labelBackgroundColor=default;" parent="1" vertex="1">
          <mxGeometry x="2255" y="300" width="50" height="30" as="geometry" />
        </mxCell>
        <mxCell id="snJnDUBm4UF36agR8E_9-172" value="&lt;font style=&quot;font-size: 14px;&quot;&gt;0.64&lt;/font&gt;" style="text;html=1;align=center;verticalAlign=middle;resizable=0;points=[];autosize=1;strokeColor=none;fillColor=none;fontFamily=Helvetica;fontSize=11;fontColor=default;labelBackgroundColor=default;" parent="1" vertex="1">
          <mxGeometry x="2219" y="300" width="50" height="30" as="geometry" />
        </mxCell>
        <mxCell id="snJnDUBm4UF36agR8E_9-173" value="&lt;font style=&quot;font-size: 14px;&quot;&gt;0.60&lt;/font&gt;" style="text;html=1;align=center;verticalAlign=middle;resizable=0;points=[];autosize=1;strokeColor=none;fillColor=none;fontFamily=Helvetica;fontSize=11;fontColor=default;labelBackgroundColor=default;" parent="1" vertex="1">
          <mxGeometry x="2290" y="300" width="50" height="30" as="geometry" />
        </mxCell>
        <mxCell id="snJnDUBm4UF36agR8E_9-174" value="&lt;font style=&quot;font-size: 14px;&quot;&gt;0.55&lt;/font&gt;" style="text;html=1;align=center;verticalAlign=middle;resizable=0;points=[];autosize=1;strokeColor=none;fillColor=none;fontFamily=Helvetica;fontSize=11;fontColor=default;labelBackgroundColor=default;" parent="1" vertex="1">
          <mxGeometry x="2325" y="300" width="50" height="30" as="geometry" />
        </mxCell>
        <mxCell id="snJnDUBm4UF36agR8E_9-175" value="&lt;font style=&quot;font-size: 14px;&quot;&gt;0.60&lt;/font&gt;" style="text;html=1;align=center;verticalAlign=middle;resizable=0;points=[];autosize=1;strokeColor=none;fillColor=none;fontFamily=Helvetica;fontSize=11;fontColor=default;labelBackgroundColor=default;" parent="1" vertex="1">
          <mxGeometry x="2359" y="300" width="50" height="30" as="geometry" />
        </mxCell>
        <mxCell id="snJnDUBm4UF36agR8E_9-176" value="&lt;font style=&quot;font-size: 14px;&quot;&gt;0.57&lt;/font&gt;" style="text;html=1;align=center;verticalAlign=middle;resizable=0;points=[];autosize=1;strokeColor=none;fillColor=none;fontFamily=Helvetica;fontSize=11;fontColor=default;labelBackgroundColor=default;" parent="1" vertex="1">
          <mxGeometry x="2393" y="300" width="50" height="30" as="geometry" />
        </mxCell>
        <mxCell id="snJnDUBm4UF36agR8E_9-177" value="&lt;font style=&quot;font-size: 14px;&quot;&gt;0.50&lt;/font&gt;" style="text;html=1;align=center;verticalAlign=middle;resizable=0;points=[];autosize=1;strokeColor=none;fillColor=none;fontFamily=Helvetica;fontSize=11;fontColor=default;labelBackgroundColor=default;" parent="1" vertex="1">
          <mxGeometry x="2429" y="300" width="50" height="30" as="geometry" />
        </mxCell>
        <mxCell id="snJnDUBm4UF36agR8E_9-178" value="&lt;font style=&quot;font-size: 14px;&quot;&gt;0.36&lt;/font&gt;" style="text;html=1;align=center;verticalAlign=middle;resizable=0;points=[];autosize=1;strokeColor=none;fillColor=none;fontFamily=Helvetica;fontSize=11;fontColor=default;labelBackgroundColor=default;" parent="1" vertex="1">
          <mxGeometry x="2464" y="300" width="50" height="30" as="geometry" />
        </mxCell>
        <mxCell id="snJnDUBm4UF36agR8E_9-217" value="&lt;font style=&quot;font-size: 14px;&quot;&gt;-0.27&lt;/font&gt;" style="text;html=1;align=center;verticalAlign=middle;resizable=0;points=[];autosize=1;strokeColor=none;fillColor=none;fontFamily=Helvetica;fontSize=11;fontColor=default;labelBackgroundColor=default;" parent="1" vertex="1">
          <mxGeometry x="1594" y="20" width="60" height="30" as="geometry" />
        </mxCell>
        <mxCell id="snJnDUBm4UF36agR8E_9-218" value="&lt;font style=&quot;font-size: 14px;&quot;&gt;0.74&lt;/font&gt;" style="text;html=1;align=center;verticalAlign=middle;resizable=0;points=[];autosize=1;strokeColor=none;fillColor=none;fontFamily=Helvetica;fontSize=11;fontColor=default;labelBackgroundColor=default;" parent="1" vertex="1">
          <mxGeometry x="2059" y="20" width="50" height="30" as="geometry" />
        </mxCell>
        <mxCell id="snJnDUBm4UF36agR8E_9-219" value="&lt;font style=&quot;font-size: 14px;&quot;&gt;-0.02&lt;/font&gt;" style="text;html=1;align=center;verticalAlign=middle;resizable=0;points=[];autosize=1;strokeColor=none;fillColor=none;fontFamily=Helvetica;fontSize=11;fontColor=default;labelBackgroundColor=default;" parent="1" vertex="1">
          <mxGeometry x="1810" y="-20" width="60" height="30" as="geometry" />
        </mxCell>
      </root>
    </mxGraphModel>
  </diagram>
</mxfile>
